<svg width="33" height="33" viewBox="0 0 33 33" fill="none" xmlns="http://www.w3.org/2000/svg">
<g filter="url(#filter0_d_10_204)">
<path fill-rule="evenodd" clip-rule="evenodd" d="M14.61 5C12.9787 5 11.6667 6.36867 11.6667 8.04533C11.6667 9.06467 12.152 9.97 12.898 10.5227C12.5135 10.8107 12.2019 11.1849 11.988 11.6151C11.7742 12.0453 11.6641 12.5196 11.6667 13C11.6667 14.02 12.152 14.9247 12.898 15.4773C12.5135 15.7654 12.2019 16.1395 11.988 16.5697C11.7742 16.9999 11.6641 17.4743 11.6667 17.9547C11.6667 19.6313 12.9787 21 14.61 21C16.2407 21 17.5533 19.6313 17.5533 17.9547V15.38C18.0689 15.8099 18.7188 16.0455 19.39 16.046C21.0213 16.0453 22.3333 14.6767 22.3333 13C22.336 12.5196 22.226 12.0452 22.0122 11.615C21.7983 11.1847 21.4866 10.8106 21.102 10.5227C21.4865 10.2346 21.7981 9.86048 22.012 9.43027C22.2258 9.00007 22.3359 8.52575 22.3333 8.04533C22.3333 6.36867 21.0213 5 19.39 5H14.61V5ZM12.7727 8.04533C12.7727 6.98467 13.6007 6.13533 14.61 6.13533H16.4467V9.95533H14.61C13.6007 9.95533 12.7727 9.10533 12.7727 8.04533V8.04533ZM19.39 9.95467H17.5533V6.13467H19.39C20.4 6.13467 21.2273 6.98467 21.2273 8.04533C21.2273 9.10533 20.4 9.95467 19.39 9.95467ZM12.7733 13C12.7733 11.94 13.6013 11.09 14.6107 11.09H16.4473V14.91H14.61C13.6 14.91 12.7727 14.06 12.7727 13H12.7733ZM17.5533 13C17.5533 11.94 18.3813 11.09 19.3907 11.09C20.4007 11.09 21.228 11.9393 21.228 13C21.228 14.06 20.4007 14.91 19.3907 14.91C18.3813 14.91 17.554 14.0607 17.554 13H17.5533ZM12.7733 17.9547C12.7733 16.8947 13.6013 16.0453 14.6107 16.0453H16.4473V17.9547C16.4473 19.0153 15.6207 19.8647 14.6107 19.8647C13.6013 19.8647 12.7733 19.0153 12.7733 17.9547Z" fill="white"/>
<circle cx="16.5" cy="12.5" r="12.5" fill="white" fill-opacity="0.25"/>
</g>
<defs>
<filter id="filter0_d_10_204" x="0" y="0" width="33" height="33" filterUnits="userSpaceOnUse" color-interpolation-filters="sRGB">
<feFlood flood-opacity="0" result="BackgroundImageFix"/>
<feColorMatrix in="SourceAlpha" type="matrix" values="0 0 0 0 0 0 0 0 0 0 0 0 0 0 0 0 0 0 127 0" result="hardAlpha"/>
<feOffset dy="4"/>
<feGaussianBlur stdDeviation="2"/>
<feComposite in2="hardAlpha" operator="out"/>
<feColorMatrix type="matrix" values="0 0 0 0 0 0 0 0 0 0 0 0 0 0 0 0 0 0 0.25 0"/>
<feBlend mode="normal" in2="BackgroundImageFix" result="effect1_dropShadow_10_204"/>
<feBlend mode="normal" in="SourceGraphic" in2="effect1_dropShadow_10_204" result="shape"/>
</filter>
</defs>
</svg>
